<svg xmlns="http://www.w3.org/2000/svg" version="1.0" width="225.000000pt" height="224.000000pt" viewBox="0 0 225.000000 224.000000" preserveAspectRatio="xMidYMid meet">

<g transform="translate(0.000000,224.000000) scale(0.100000,-0.100000)" fill="#add0b3" stroke="none">
<path d="M1425 1693 c-22 -46 -25 -132 -6 -198 11 -36 29 -64 68 -103 29 -29 53 -58 53 -63 0 -5 -7 -25 -15 -45 l-14 -35 -43 22 c-24 12 -88 65 -143 118 -55 54 -118 110 -140 126 -54 39 -65 54 -65 86 0 18 10 36 31 54 17 14 28 29 24 33 -14 14 -122 4 -185 -18 -54 -18 -89 -23 -205 -24 -121 -2 -148 -5 -195 -25 -169 -70 -276 -230 -287 -427 -11 -185 54 -353 187 -484 156 -155 334 -218 541 -191 106 14 172 37 246 86 51 34 57 35 90 24 57 -18 186 -16 217 4 32 21 33 45 4 56 -13 5 -49 20 -81 35 l-58 26 60 71 c33 39 75 103 95 143 39 80 76 212 78 284 2 54 12 72 42 72 40 0 122 47 159 91 52 61 88 195 57 214 -6 4 -29 -10 -52 -29 -33 -28 -50 -36 -82 -36 -47 -1 -110 -21 -135 -44 -23 -21 -31 -20 -31 2 -1 28 -33 62 -86 90 -36 20 -55 39 -72 72 -12 25 -26 46 -31 48 -5 1 -16 -14 -26 -35z m-764 -428 c153 -51 274 -154 397 -336 84 -124 138 -187 204 -239 47 -38 47 -38 20 -43 -33 -6 -123 8 -153 24 -12 6 -58 38 -102 71 -86 63 -146 98 -172 98 -19 0 -20 -46 0 -80 22 -38 18 -59 -12 -71 -91 -34 -280 106 -363 270 -58 116 -97 295 -69 318 37 29 144 24 250 -12z m592 -28 c54 -23 147 -143 147 -191 0 -21 -61 -39 -92 -27 -41 15 -69 59 -66 103 2 44 -8 58 -53 67 -38 8 -46 22 -24 45 20 20 45 20 88 3z m-46 -93 c8 -22 -18 -37 -36 -20 -7 8 -10 19 -7 25 10 16 36 13 43 -5z" fill="#add0b3"/>
</g>
</svg>