<svg xmlns="http://www.w3.org/2000/svg" version="1.0" width="225.000000pt" height="225.000000pt" viewBox="0 0 225.000000 225.000000" preserveAspectRatio="xMidYMid meet">

<g transform="translate(0.000000,225.000000) scale(0.100000,-0.100000)" fill="#add0b3" stroke="none">
<path d="M1685 1637 c-552 -554 -796 -803 -760 -776 195 150 708 519 727 524 38 10 72 -28 95 -101 28 -90 25 -278 -5 -365 -96 -280 -367 -454 -652 -418 -41 5 -96 16 -122 25 l-46 15 -124 -56 c-68 -31 -124 -58 -126 -60 -2 -2 27 -20 64 -41 494 -276 1089 -25 1235 521 29 109 30 283 1 416 -62 289 -32 429 154 705 56 85 102 154 101 154 -1 0 -245 -244 -542 -543z" fill="#add0b3"/>
<path d="M1005 1936 c-242 -48 -443 -187 -569 -395 -131 -215 -153 -506 -58 -751 19 -48 25 -85 26 -140 1 -123 -51 -214 -237 -414 -51 -55 -109 -119 -128 -141 l-34 -40 40 34 c22 19 181 160 353 314 l313 279 -34 42 c-95 116 -139 234 -140 371 -1 293 188 536 475 611 80 21 270 15 338 -10 l45 -17 123 57 c94 44 120 60 111 70 -18 22 -171 92 -249 114 -97 27 -278 35 -375 16z" fill="#add0b3"/>
</g>
</svg>